<?xml version="1.0" standalone="no"?>
<!DOCTYPE svg PUBLIC "-//W3C//DTD SVG 20010904//EN"
 "http://www.w3.org/TR/2001/REC-SVG-20010904/DTD/svg10.dtd">
<svg version="1.0" xmlns="http://www.w3.org/2000/svg"
 width="1080.000000pt" height="1080.000000pt" viewBox="0 0 1080.000000 1080.000000"
 preserveAspectRatio="xMidYMid meet">

<g transform="translate(0.000000,1080.000000) scale(0.100000,-0.100000)"
fill="#000000" stroke="none">
<path d="M7029 9700 c-14 -4 -68 -6 -121 -5 -102 3 -111 1 -121 -29 -7 -18 -8
-18 -26 -2 -13 12 -21 14 -26 6 -4 -7 -11 -8 -18 -1 -13 10 -82 -4 -217 -46
-97 -29 -178 -66 -266 -121 -33 -20 -95 -57 -138 -82 -279 -162 -436 -282
-670 -513 -212 -211 -336 -368 -412 -524 -46 -95 -59 -113 -78 -113 -17 0 -27
10 -38 38 -12 31 -22 40 -47 45 -17 4 -34 13 -36 22 -3 8 -7 22 -10 30 -4 13
-9 14 -27 4 -38 -20 -217 -200 -257 -259 -40 -59 -65 -116 -40 -92 7 6 18 12
25 12 6 0 38 16 69 35 89 53 164 60 130 13 -9 -14 -11 -26 -5 -33 5 -6 7 -21
3 -33 -5 -20 -11 -21 -72 -19 -64 2 -68 1 -123 -42 -56 -42 -58 -45 -52 -80 7
-46 -16 -72 -47 -53 -27 17 -37 15 -44 -9 -4 -11 -17 -25 -29 -30 -12 -6 -28
-25 -36 -42 -7 -18 -22 -38 -32 -45 -27 -20 -22 -49 11 -60 26 -9 29 -15 33
-71 5 -70 16 -86 51 -77 26 6 67 61 67 90 0 9 10 30 22 46 12 16 20 31 17 32
-2 2 -13 8 -24 14 -27 15 -30 38 -11 78 14 29 21 34 66 39 41 5 62 15 115 59
36 29 79 74 95 100 23 36 38 50 69 59 22 7 50 23 62 35 13 13 27 24 33 24 6 0
31 14 56 30 25 16 52 30 61 30 9 0 32 17 51 38 59 62 126 113 162 123 19 5 51
28 72 51 20 23 56 56 78 73 28 21 41 38 41 55 0 14 8 29 20 35 11 6 31 18 45
27 14 9 58 19 99 23 76 6 111 18 111 35 0 6 24 10 53 10 48 -1 50 -2 33 -15
-11 -8 -34 -15 -50 -15 -26 -1 -28 -2 -14 -11 16 -9 16 -12 3 -32 -8 -13 -30
-28 -49 -35 -19 -7 -38 -22 -41 -33 -4 -11 -23 -27 -43 -36 -77 -32 -83 -40
-57 -67 14 -14 14 -18 1 -44 -14 -27 -14 -31 2 -45 10 -9 29 -20 42 -26 24 -9
24 -10 -8 -10 -19 -1 -45 -10 -59 -21 -19 -15 -34 -18 -62 -14 -53 8 -113 -28
-105 -62 5 -20 2 -24 -15 -24 -11 0 -36 -13 -54 -30 -19 -16 -46 -30 -60 -30
-21 0 -37 -16 -37 -36 0 -2 20 -4 45 -4 54 0 58 -11 11 -30 -19 -7 -39 -24
-45 -37 -6 -12 -15 -23 -21 -23 -5 0 -10 -4 -10 -10 0 -5 7 -10 16 -10 9 0 29
-8 44 -17 21 -12 28 -24 28 -45 -1 -32 -13 -44 -31 -30 -7 5 -20 12 -29 15
-26 9 -16 -39 15 -75 15 -16 27 -33 27 -37 0 -3 -14 -14 -30 -23 -34 -20 -39
-38 -10 -38 11 0 20 -4 20 -10 0 -5 5 -10 11 -10 5 0 7 5 4 10 -8 13 5 12 33
-3 22 -13 22 -14 5 -29 -10 -9 -29 -18 -43 -20 -23 -4 -24 -5 -5 -13 11 -5 23
-12 26 -17 3 -5 21 -11 39 -13 52 -7 56 -25 6 -30 -38 -5 -52 -16 -33 -27 9
-5 14 -15 11 -23 -4 -9 0 -15 10 -15 9 0 16 -8 16 -19 0 -10 6 -19 13 -18 38
1 59 -6 86 -29 22 -18 40 -25 68 -23 63 3 69 1 47 -16 -19 -15 -19 -15 1 -31
11 -8 34 -14 50 -13 42 2 115 -12 115 -22 0 -5 -15 -9 -32 -9 l-33 0 27 -14
c49 -26 51 -28 37 -37 -8 -5 -43 -9 -79 -9 -70 0 -70 -10 1 -29 34 -9 56 -10
84 -2 21 6 42 8 46 5 13 -8 178 -10 173 -2 -3 5 3 8 13 8 20 -1 63 -33 63 -48
0 -16 68 -54 82 -46 7 5 24 8 38 8 42 1 35 29 -12 49 -41 17 -42 19 -24 33 11
8 28 12 37 9 12 -4 20 1 24 14 3 11 19 24 35 30 43 14 37 29 -12 33 -39 3 -43
6 -49 36 -5 24 -3 35 7 39 20 7 17 43 -3 59 -14 10 -16 17 -7 31 9 14 22 17
60 14 26 -1 57 -7 68 -11 18 -7 16 -10 -22 -25 -34 -14 -40 -20 -31 -31 17
-21 38 -17 51 11 6 14 17 25 24 25 7 0 14 5 16 10 2 6 23 14 48 19 43 8 44 8
17 16 -15 4 -46 5 -68 1 -28 -4 -44 -2 -54 7 -12 12 -4 17 48 32 34 10 71 25
82 32 11 7 35 13 55 13 36 0 69 14 59 25 -4 3 -32 3 -63 -1 -41 -5 -60 -12
-67 -25 -8 -15 -22 -19 -71 -19 -53 0 -60 2 -48 14 21 19 77 36 121 36 21 0
40 4 43 9 3 5 -27 9 -68 9 -88 0 -139 10 -133 25 4 12 18 12 75 1 19 -4 32 -2
32 4 0 5 19 12 43 16 78 12 146 29 142 36 -6 10 -178 -1 -193 -13 -7 -5 -15
-8 -17 -5 -3 3 6 11 20 18 14 7 25 17 25 21 0 4 12 10 28 14 l27 8 -35 15 -35
16 68 9 c71 10 84 24 41 44 -17 8 -34 9 -50 2 -14 -5 -35 -9 -46 -9 -19 0 -19
1 5 20 14 11 34 20 45 20 12 0 23 4 26 9 6 10 -25 20 -64 22 l-25 1 25 7 c16
4 44 0 75 -11 60 -22 89 -24 64 -5 -9 7 -16 17 -15 22 1 6 -14 15 -32 21 -39
12 -64 34 -40 34 9 0 19 7 22 16 5 13 1 14 -26 9 -18 -4 -40 -12 -50 -18 -25
-16 -34 0 -13 23 11 13 14 20 6 20 -20 0 -8 44 13 48 10 2 29 -1 41 -8 16 -8
41 -9 94 -1 65 9 74 8 91 -9 38 -38 191 -36 198 3 2 9 -3 17 -11 17 -9 0 -12
9 -9 30 3 22 0 30 -11 30 -27 0 -31 22 -9 40 l21 18 -27 5 c-15 3 -36 12 -47
21 -19 14 -19 15 15 30 33 14 33 15 9 16 -15 0 -32 7 -39 15 -10 12 -7 14 17
13 15 -1 35 2 43 5 8 4 22 2 30 -3 13 -9 12 -12 -4 -25 -16 -12 -16 -15 -4
-15 8 0 23 -9 33 -20 10 -11 26 -20 37 -20 21 0 22 -4 6 -30 -21 -33 13 -57
85 -59 16 -1 27 -7 27 -15 0 -9 10 -13 25 -12 36 2 27 27 -15 41 -26 9 -34 18
-33 33 1 11 -4 26 -12 32 -18 15 -19 37 -2 43 10 3 10 9 0 26 -18 29 -17 31
13 31 28 0 92 -49 109 -84 6 -11 20 -23 32 -26 24 -5 73 -65 73 -88 0 -9 7
-11 20 -7 14 5 20 2 20 -9 0 -9 5 -16 10 -16 11 0 58 -72 52 -79 -6 -7 59 -41
79 -41 16 0 19 -5 14 -19 -4 -15 1 -24 22 -35 15 -9 44 -31 63 -51 19 -19 39
-35 45 -35 6 0 42 -30 80 -67 39 -37 88 -75 110 -84 22 -9 40 -23 40 -31 0 -8
32 -46 70 -84 90 -89 195 -208 195 -221 0 -3 23 -30 50 -59 28 -29 50 -49 50
-44 0 5 -4 11 -9 14 -15 9 -23 76 -11 90 7 10 6 17 -4 25 -11 9 -15 9 -18 -1
-4 -10 -8 -10 -22 2 -14 10 -16 23 -12 50 5 32 2 39 -19 50 -23 12 -24 15 -9
31 20 22 11 39 -21 39 -23 0 -114 48 -115 61 0 3 11 12 25 19 27 14 35 36 10
26 -25 -9 -42 3 -60 45 -12 26 -25 39 -37 39 -11 0 -22 9 -25 19 -5 21 -29 35
-44 26 -5 -3 -22 4 -39 16 -28 21 -29 24 -14 40 15 17 14 19 -12 25 -16 4 -49
16 -73 26 -41 17 -43 20 -37 49 5 27 4 29 -10 15 -23 -23 -34 -20 -41 14 -3
17 -10 33 -14 36 -5 3 -9 14 -9 25 0 13 -7 19 -24 19 -13 0 -26 -5 -28 -12 -2
-6 -10 -8 -16 -4 -17 10 -15 26 3 26 14 0 41 38 32 46 -3 3 -16 6 -29 8 -13 1
-34 12 -47 25 -18 18 -20 25 -11 37 15 17 6 44 -13 44 -21 0 -48 35 -42 53 7
17 -4 22 -79 32 -35 5 -45 9 -35 16 8 5 24 9 37 9 29 0 28 19 -4 53 -14 15
-22 32 -18 38 7 12 -33 44 -56 44 -10 0 -14 8 -12 28 2 19 -2 27 -13 27 -9 0
-34 18 -56 40 -37 37 -44 40 -78 34 l-36 -7 19 22 c12 13 26 19 37 16 9 -3 20
-1 24 5 9 15 45 12 51 -5 4 -9 36 -35 73 -59 37 -24 80 -56 95 -72 15 -16 39
-42 54 -57 15 -16 39 -36 55 -45 15 -9 27 -21 27 -28 0 -6 26 -32 58 -57 74
-59 142 -123 142 -135 0 -17 81 -74 96 -68 11 4 14 1 10 -12 -4 -13 7 -28 38
-55 38 -31 46 -34 56 -21 7 8 15 12 18 9 3 -2 -1 -11 -8 -19 -10 -12 -8 -21 9
-44 32 -46 47 -56 55 -36 4 10 1 21 -6 25 -10 6 -10 11 -1 20 16 16 34 -22 27
-58 -4 -20 -1 -33 11 -43 14 -11 18 -10 31 8 21 30 36 28 22 -3 -9 -21 -8 -32
6 -61 14 -31 20 -35 41 -30 18 5 25 2 25 -8 0 -8 -5 -16 -11 -18 -7 -2 2 -25
23 -58 19 -30 42 -67 52 -82 9 -16 22 -27 29 -25 8 1 11 -8 9 -25 -1 -15 7
-47 19 -70 32 -65 38 -70 56 -52 14 14 13 17 -6 30 -23 16 -19 39 5 30 10 -4
14 2 14 19 0 22 -5 29 -47 65 -16 13 -15 15 7 20 34 8 35 25 3 48 -19 13 -40
18 -65 16 -45 -4 -51 12 -8 21 36 8 37 15 5 53 -20 24 -22 31 -10 36 8 3 15
12 15 21 0 17 -11 20 -25 6 -12 -10 -75 14 -75 29 0 6 6 13 14 16 11 4 10 12
-7 38 -19 29 -66 55 -104 58 -16 2 -16 7 2 38 21 37 20 39 -35 46 -59 8 -68
17 -38 38 29 21 16 31 -38 30 -43 -1 -51 6 -44 41 1 5 -7 15 -16 22 -10 7 -19
23 -19 36 -2 32 -27 78 -40 73 -16 -6 -73 46 -67 62 5 16 -16 42 -34 42 -7 0
-24 4 -38 10 -22 8 -24 13 -16 34 7 20 6 27 -7 34 -12 7 -15 19 -10 51 4 32 2
41 -10 41 -11 0 -14 -7 -9 -24 7 -28 -13 -49 -34 -36 -13 8 -13 13 -1 32 10
16 10 23 2 26 -18 6 -13 40 9 52 16 8 25 5 50 -20 17 -16 35 -41 40 -55 10
-27 30 -34 30 -10 0 26 18 16 29 -15 5 -16 17 -30 25 -30 9 0 16 -4 16 -10 0
-5 9 -10 20 -10 11 0 20 -6 20 -13 0 -12 26 -74 36 -86 2 -2 21 -7 41 -10 28
-5 38 -11 38 -24 0 -10 13 -26 28 -35 23 -14 29 -15 36 -3 5 8 7 19 5 26 -3 6
3 18 12 26 16 13 17 12 12 -8 -10 -36 16 -48 103 -46 44 1 79 -2 79 -7 0 -20
-13 -40 -26 -40 -8 0 -14 -5 -14 -10 0 -12 49 -3 65 11 16 15 35 10 35 -9 0
-10 8 -25 18 -34 9 -9 34 -34 55 -57 28 -30 46 -41 68 -41 24 0 29 -4 29 -23
0 -13 8 -30 18 -38 19 -17 88 -49 102 -49 5 0 24 -16 42 -36 l33 -35 37 15
c31 13 37 22 43 55 4 23 2 48 -4 60 -6 11 -11 34 -11 51 0 18 -8 45 -17 61
-15 25 -15 31 -3 55 14 24 13 27 -12 45 -23 17 -25 24 -21 59 4 30 2 40 -8 40
-32 1 -59 37 -59 78 0 40 0 40 -50 53 -27 7 -51 15 -51 18 -2 6 -6 38 -13 94
-2 15 -4 30 -5 34 0 3 -9 -1 -19 -10 -13 -12 -22 -13 -29 -6 -7 7 -14 5 -22
-5 -11 -13 -16 -13 -42 6 -26 20 -28 24 -15 43 9 14 11 27 5 38 -6 11 -5 23 3
36 10 17 9 23 -6 40 -25 28 -17 55 17 59 20 2 27 8 23 17 -3 8 2 18 10 23 18
10 16 53 -3 59 -6 2 -19 -8 -27 -24 -14 -27 -15 -27 -16 -5 -1 63 -63 112
-162 126 -26 4 -50 12 -54 17 -3 6 9 27 27 46 l34 35 -22 15 c-32 21 -31 63 0
63 13 0 32 7 43 15 18 14 18 16 2 29 -10 7 -18 26 -18 43 0 39 -54 92 -103
100 -30 4 -37 3 -37 -11 0 -10 -9 -16 -25 -16 -18 0 -25 5 -25 19 0 10 -8 29
-18 42 -10 13 -21 31 -24 40 -7 17 -66 34 -104 30 -14 -1 -23 5 -27 18 -3 13
-13 21 -25 21 -12 0 -24 5 -27 10 -4 6 8 10 29 10 25 0 38 6 46 19 13 26 13
28 -6 35 -22 9 -64 -4 -64 -19 0 -7 -7 -16 -16 -19 -8 -3 -12 -11 -8 -17 4 -7
-1 -10 -12 -7 -11 2 -19 12 -19 23 0 14 -7 20 -25 21 -48 1 -49 3 -43 39 8 47
-19 58 -48 21 -25 -32 -34 -32 -71 -1 -16 14 -36 25 -44 25 -8 0 -23 5 -34 12
-15 9 -24 9 -44 -1 -26 -14 -76 -8 -76 10 0 5 14 16 30 23 17 7 27 15 23 19
-8 9 -71 7 -104 -3z m373 -207 c25 -23 23 -30 -12 -31 -22 0 -30 4 -30 17 0
33 15 39 42 14z m358 -197 c0 -22 -19 -30 -35 -16 -22 18 -18 30 10 30 15 0
25 -6 25 -14z m-135 -36 c3 -5 -1 -10 -9 -10 -9 0 -16 5 -16 10 0 6 4 10 9 10
6 0 13 -4 16 -10z m225 -45 c10 -12 10 -15 -4 -15 -9 0 -16 7 -16 15 0 8 2 15
4 15 2 0 9 -7 16 -15z m-150 -181 c0 -8 -5 -12 -10 -9 -6 4 -8 11 -5 16 9 14
15 11 15 -7z m-700 -204 c13 -8 13 -10 -2 -10 -9 0 -20 5 -23 10 -8 13 5 13
25 0z m70 -20 c0 -5 -2 -10 -4 -10 -3 0 -8 5 -11 10 -3 6 -1 10 4 10 6 0 11
-4 11 -10z m78 -60 c29 -44 28 -58 -3 -23 -21 25 -24 26 -25 8 0 -17 -2 -18
-15 -5 -16 17 -9 63 9 57 6 -2 21 -18 34 -37z m51 -29 c-15 -5 -22 6 -14 19 6
9 10 9 16 -1 5 -8 4 -15 -2 -18z m38 -27 c-9 -9 -28 6 -21 18 4 6 10 6 17 -1
6 -6 8 -13 4 -17z m783 -34 c0 -5 -4 -10 -10 -10 -5 0 -10 5 -10 10 0 6 5 10
10 10 6 0 10 -4 10 -10z m-677 -37 c14 -8 7 -23 -10 -23 -10 0 -36 5 -57 11
-29 8 -36 13 -25 20 13 8 73 3 92 -8z m-1775 -5 c-5 -15 -78 -24 -78 -10 0 16
13 22 48 22 22 0 32 -4 30 -12z m477 -28 c-3 -5 -10 -10 -16 -10 -5 0 -9 5 -9
10 0 6 7 10 16 10 8 0 12 -4 9 -10z m-385 -247 c33 -9 34 -9 10 -16 -13 -3
-29 -2 -34 3 -6 6 -23 10 -38 10 -15 0 -28 5 -28 11 0 11 18 10 90 -8z m2570
-43 c0 -5 -4 -10 -9 -10 -6 0 -13 5 -16 10 -3 6 1 10 9 10 9 0 16 -4 16 -10z
m-345 -10 c-4 -6 -11 -8 -16 -4 -5 3 -16 0 -24 -6 -8 -7 -20 -10 -27 -7 -8 3
-3 9 12 15 33 14 63 15 55 2z m-2115 -20 c22 -7 21 -8 -12 -9 -21 -1 -38 4
-38 9 0 11 14 11 50 0z m390 0 c0 -5 -7 -10 -15 -10 -8 0 -15 5 -15 10 0 6 7
10 15 10 8 0 15 -4 15 -10z m1823 -4 c12 -9 14 -16 7 -21 -12 -7 -40 11 -40
26 0 13 12 11 33 -5z m-2376 -2 c-3 -3 -12 -4 -19 -1 -8 3 -5 6 6 6 11 1 17
-2 13 -5z m68 -50 c-16 -12 -50 -11 -65 3 -10 10 23 19 52 15 29 -4 30 -6 13
-18z m533 7 c19 -11 -3 -27 -49 -34 -42 -6 -64 8 -46 29 13 15 75 18 95 5z
m-118 -21 c0 -13 -20 -13 -40 0 -12 8 -9 10 13 10 15 0 27 -4 27 -10z m-3 -27
c-4 -3 -2 -12 4 -20 9 -10 6 -13 -15 -13 -14 0 -26 4 -26 8 0 11 22 32 34 32
5 0 6 -3 3 -7z m164 -14 c56 -17 61 -41 6 -33 -51 8 -80 22 -72 35 8 12 19 11
66 -2z m-546 -158 c18 -4 31 -14 33 -25 3 -15 0 -17 -14 -10 -11 5 -41 9 -69
10 -90 2 -195 16 -189 25 6 10 192 10 239 0z m228 -54 c49 -17 66 -34 44 -42
-23 -9 -165 0 -217 14 -70 19 -76 35 -10 27 31 -4 67 -2 80 3 34 13 59 13 103
-2z m-308 -87 c2 -4 -5 -31 -16 -59 -11 -29 -17 -61 -14 -71 7 -23 -4 -50 -21
-50 -7 0 -28 13 -45 28 -29 26 -32 33 -30 87 0 33 4 62 8 66 17 16 108 16 118
-1z m395 -6 c41 -2 82 -4 90 -5 12 -2 -91 -14 -160 -20 -25 -1 -92 19 -104 32
-8 9 1 10 44 4 30 -4 89 -9 130 -11z m165 -34 c-3 -5 -10 -10 -16 -10 -5 0 -9
5 -9 10 0 6 7 10 16 10 8 0 12 -4 9 -10z m-15 -80 c0 -5 -8 -10 -17 -10 -15 0
-16 2 -3 10 19 12 20 12 20 0z m-13 -26 c-3 -3 -12 -4 -19 -1 -8 3 -5 6 6 6
11 1 17 -2 13 -5z m-827 -25 c0 -6 -4 -7 -10 -4 -5 3 -10 11 -10 16 0 6 5 7
10 4 6 -3 10 -11 10 -16z m80 6 c0 -8 -4 -15 -8 -15 -5 0 -9 7 -9 15 0 8 4 15
9 15 4 0 8 -7 8 -15z m517 -17 c25 -32 37 -117 19 -138 -7 -8 -16 -23 -19 -33
-4 -9 -13 -20 -21 -23 -21 -8 -152 35 -172 57 -15 17 -15 18 12 24 92 21 110
34 134 93 13 33 31 41 47 20z m-477 -22 c0 -3 -4 -8 -10 -11 -5 -3 -10 -1 -10
4 0 6 5 11 10 11 6 0 10 -2 10 -4z m655 -36 c-3 -5 -13 -10 -21 -10 -8 0 -14
5 -14 10 0 6 9 10 21 10 11 0 17 -4 14 -10z m-763 -75 c8 -8 -35 -54 -44 -49
-14 9 -9 24 7 24 8 0 15 7 15 15 0 15 12 20 22 10z m235 -161 c-3 -3 -12 -4
-19 -1 -8 3 -5 6 6 6 11 1 17 -2 13 -5z"/>
<path d="M7620 9530 c0 -5 12 -10 26 -10 14 0 23 4 19 10 -3 6 -15 10 -26 10
-10 0 -19 -4 -19 -10z"/>
<path d="M8065 9406 c78 -70 98 -92 180 -186 90 -104 138 -149 91 -85 -75 101
-171 206 -236 257 -63 49 -83 57 -35 14z"/>
<path d="M7947 9133 c-11 -10 13 -33 35 -33 16 0 17 3 8 20 -11 20 -31 26 -43
13z"/>
<path d="M8020 9115 c-18 -22 -3 -35 42 -35 l41 0 -23 25 c-27 29 -42 31 -60
10z"/>
<path d="M8117 8998 c-11 -9 -14 -18 -8 -27 8 -12 12 -12 25 -2 17 14 22 41 8
41 -5 0 -16 -6 -25 -12z"/>
<path d="M8130 8680 c0 -23 6 -33 23 -39 28 -11 32 0 12 38 -20 39 -35 40 -35
1z"/>
<path d="M8236 8575 c4 -8 8 -15 10 -15 2 0 4 7 4 15 0 8 -4 15 -10 15 -5 0
-7 -7 -4 -15z"/>
<path d="M5458 8503 c-28 -7 -21 -23 10 -23 37 0 60 15 37 24 -18 6 -20 6 -47
-1z"/>
<path d="M5468 8283 c7 -3 16 -2 19 1 4 3 -2 6 -13 5 -11 0 -14 -3 -6 -6z"/>
<path d="M7760 8224 c0 -29 77 -46 110 -24 13 9 13 11 0 20 -8 5 -22 10 -30
10 -8 1 -30 3 -47 4 -23 3 -33 -1 -33 -10z"/>
<path d="M7840 8140 c8 -5 26 -9 40 -9 23 0 23 1 5 9 -11 5 -29 9 -40 9 -17 1
-17 -1 -5 -9z"/>
<path d="M6293 8023 c9 -2 25 -2 35 0 9 3 1 5 -18 5 -19 0 -27 -2 -17 -5z"/>
<path d="M6583 7993 c-20 -7 -15 -23 7 -23 11 0 20 4 20 9 0 13 -12 19 -27 14z"/>
<path d="M6420 7959 c0 -5 5 -7 10 -4 6 3 10 8 10 11 0 2 -4 4 -10 4 -5 0 -10
-5 -10 -11z"/>
<path d="M6914 7959 c-3 -5 6 -9 20 -9 31 0 34 6 6 13 -11 3 -23 1 -26 -4z"/>
<path d="M7815 7950 c3 -5 11 -10 16 -10 6 0 7 5 4 10 -3 6 -11 10 -16 10 -6
0 -7 -4 -4 -10z"/>
<path d="M6612 7903 c-15 -6 -6 -23 12 -23 7 0 21 7 32 15 18 14 18 14 -6 14
-14 0 -31 -3 -38 -6z"/>
<path d="M8090 7813 c1 -4 7 -19 16 -33 l14 -25 -2 29 c-2 16 -9 31 -15 34 -7
2 -13 0 -13 -5z"/>
<path d="M8155 7749 c-4 -6 -5 -13 -2 -16 7 -7 27 6 27 18 0 12 -17 12 -25 -2z"/>
<path d="M8020 7690 c0 -5 9 -10 20 -10 11 0 20 5 20 10 0 6 -9 10 -20 10 -11
0 -20 -4 -20 -10z"/>
<path d="M6366 7489 c3 -5 12 -9 21 -9 19 0 9 13 -12 16 -8 1 -13 -2 -9 -7z"/>
<path d="M5190 7450 c0 -5 9 -10 20 -10 11 0 20 5 20 10 0 6 -9 10 -20 10 -11
0 -20 -4 -20 -10z"/>
<path d="M6385 7430 c3 -5 10 -10 16 -10 5 0 9 5 9 10 0 6 -7 10 -16 10 -8 0
-12 -4 -9 -10z"/>
<path d="M7615 7390 c3 -5 10 -10 16 -10 5 0 9 5 9 10 0 6 -7 10 -16 10 -8 0
-12 -4 -9 -10z"/>
<path d="M6154 7369 c-3 -5 9 -9 25 -9 17 0 31 2 31 4 0 8 -51 13 -56 5z"/>
<path d="M6090 7355 c-8 -9 -8 -15 -2 -15 18 0 42 12 42 21 0 14 -26 10 -40
-6z"/>
<path d="M4180 7332 c0 -22 38 -65 51 -57 15 10 10 30 -14 53 -28 27 -37 28
-37 4z"/>
<path d="M6200 7340 c0 -5 11 -10 24 -10 14 0 28 5 31 10 4 6 -7 10 -24 10
-17 0 -31 -4 -31 -10z"/>
<path d="M7460 7270 c0 -5 5 -10 10 -10 6 0 10 5 10 10 0 6 -4 10 -10 10 -5 0
-10 -4 -10 -10z"/>
<path d="M7520 7235 c0 -10 10 -15 31 -15 27 0 30 2 19 15 -7 8 -21 15 -31 15
-11 0 -19 -7 -19 -15z"/>
<path d="M8565 7181 c-3 -6 -18 -34 -34 -63 -16 -29 -41 -75 -56 -103 -16 -27
-21 -43 -12 -35 15 14 96 157 110 193 7 18 2 23 -8 8z"/>
<path d="M6165 7170 c4 -6 11 -8 16 -5 14 9 11 15 -7 15 -8 0 -12 -5 -9 -10z"/>
<path d="M7585 7100 c-6 -10 73 -55 83 -46 3 3 -1 17 -8 31 -14 26 -62 36 -75
15z"/>
<path d="M4256 7019 l-26 -21 19 -24 c11 -14 23 -38 26 -54 4 -17 10 -32 15
-35 4 -3 3 -18 -3 -35 -9 -22 -8 -38 2 -65 7 -19 10 -44 6 -54 -3 -11 -1 -22
5 -26 18 -11 61 -112 54 -129 -3 -9 0 -23 7 -32 7 -8 14 -50 16 -92 7 -146 3
-203 -15 -225 -9 -11 -10 -22 -4 -34 5 -10 7 -23 5 -30 -2 -6 4 -24 13 -39 16
-23 16 -28 3 -38 -24 -18 -18 -64 7 -53 7 3 43 -63 44 -80 0 -7 -11 -13 -25
-13 -16 0 -25 -6 -25 -15 0 -9 9 -15 24 -15 29 0 34 -13 41 -100 3 -35 8 -67
10 -71 3 -4 0 -9 -6 -11 -20 -7 0 -75 24 -82 21 -6 21 -7 5 -20 -22 -16 -23
-30 -2 -47 9 -7 13 -21 10 -32 -3 -11 -1 -28 5 -38 6 -13 6 -25 -3 -38 -10
-17 -9 -25 11 -51 12 -18 20 -38 17 -47 -4 -9 0 -25 7 -37 8 -12 12 -31 11
-44 -2 -13 4 -40 15 -62 18 -38 18 -38 -2 -44 -14 -3 -18 -10 -12 -23 32 -78
38 -136 40 -358 1 -130 6 -247 12 -268 15 -51 78 -154 117 -192 48 -46 83 -43
234 21 40 17 59 18 64 3 5 -16 64 15 78 42 39 72 118 136 213 174 30 11 37 19
33 33 -10 31 102 112 154 112 24 0 70 21 70 32 0 4 -10 8 -22 8 -50 0 -47 16
5 34 28 11 72 32 96 47 25 16 50 29 56 29 19 0 108 52 130 76 11 12 32 24 48
28 15 3 27 13 27 20 0 17 22 26 61 26 22 0 29 5 29 19 0 25 40 50 71 45 31 -5
94 26 94 47 0 8 8 23 18 33 11 11 15 26 12 37 -4 12 -2 19 8 19 21 0 60 47 52
61 -5 7 -2 17 6 23 8 6 20 23 26 38 15 33 -5 53 -61 62 -47 8 -54 12 -38 28
10 10 17 10 32 0 16 -9 18 -9 14 2 -6 16 -47 36 -74 36 -11 0 -20 5 -20 12 0
6 -14 23 -31 38 -29 23 -37 25 -83 19 -51 -7 -85 4 -53 17 27 10 20 21 -19 29
-21 3 -48 13 -61 22 -21 14 -22 17 -8 33 20 22 19 30 -5 30 -13 0 -20 7 -20
18 0 11 -10 24 -22 29 -24 11 -24 12 27 28 36 11 1 35 -52 35 -13 0 -23 6 -23
14 0 8 -7 16 -15 20 -15 5 -21 36 -7 36 4 0 19 -7 34 -14 16 -9 30 -11 33 -5
4 5 2 9 -3 9 -14 0 -24 32 -14 42 16 16 102 17 132 2 21 -11 27 -20 23 -35 -5
-19 -2 -20 53 -15 71 7 142 21 151 30 8 8 7 61 -2 104 -5 21 -16 38 -31 44
-13 6 -26 19 -29 29 -4 10 -43 39 -88 63 -82 45 -83 45 -155 39 -81 -7 -97 1
-110 51 -5 17 -15 32 -23 32 -8 1 -22 2 -32 3 -23 1 -63 45 -72 78 -3 14 -13
32 -20 40 -22 21 -18 41 8 45 16 2 21 9 19 23 -5 34 -53 126 -84 161 -36 41
-132 94 -170 94 -16 0 -45 7 -65 15 -19 8 -39 15 -43 15 -15 0 -19 -30 -8 -55
9 -21 8 -28 -7 -45 -17 -19 -17 -21 28 -65 28 -29 39 -45 29 -44 -33 3 -52 -1
-52 -11 0 -5 8 -10 18 -10 19 0 57 -38 48 -48 -4 -3 12 -14 34 -24 47 -22 52
-38 11 -38 -20 0 -32 -6 -36 -19 -5 -16 -16 -19 -68 -20 -71 0 -197 34 -197
55 0 12 -30 27 -46 22 -13 -3 -77 13 -89 22 -6 5 -26 10 -45 12 -30 3 -35 6
-32 26 2 16 -2 22 -17 22 -25 0 -37 18 -17 26 9 3 16 12 16 20 0 7 9 18 21 24
16 9 18 14 8 26 -6 7 -9 28 -7 44 5 34 -23 60 -45 42 -7 -5 -46 -8 -87 -6 -41
3 -91 4 -111 4 -32 1 -36 3 -32 24 4 19 -2 26 -36 39 -23 9 -41 24 -41 32 0 8
-13 21 -30 30 -32 17 -36 25 -19 42 12 12 3 53 -11 53 -22 0 -80 63 -80 86 0
16 -8 28 -25 36 -14 6 -25 15 -25 20 0 15 -27 8 -54 -13z m1302 -648 c3 -8 -1
-12 -9 -9 -7 2 -15 10 -17 17 -3 8 1 12 9 9 7 -2 15 -10 17 -17z m-163 -41
c20 -9 13 -12 -25 -12 -40 0 -46 2 -30 12 18 12 28 12 55 0z m80 -9 c10 -17
-12 -21 -25 -6 -10 12 -10 15 3 15 9 0 18 -4 22 -9z m-575 -58 c8 -7 32 -29
52 -48 21 -19 49 -38 64 -41 14 -4 23 -12 21 -19 -3 -7 5 -12 24 -12 16 0 29
4 29 9 0 4 5 8 11 8 5 0 7 -5 4 -10 -3 -6 5 -14 19 -20 32 -12 35 -40 4 -40
-52 0 -99 14 -120 34 -13 12 -41 30 -63 40 -81 37 -90 43 -87 54 1 7 -8 12
-21 12 -25 0 -67 26 -67 41 0 14 113 7 130 -8z m805 -94 c-3 -4 -12 -6 -20 -3
-8 4 -13 10 -10 15 3 4 12 6 20 3 8 -4 13 -10 10 -15z m-492 -108 c6 -6 8 -13
5 -16 -8 -8 -88 18 -88 29 0 11 70 0 83 -13z m537 -31 c0 -5 -9 -10 -20 -10
-11 0 -20 5 -20 10 0 6 9 10 20 10 11 0 20 -4 20 -10z m-930 -16 c0 -8 -4 -12
-10 -9 -5 3 -10 10 -10 16 0 5 5 9 10 9 6 0 10 -7 10 -16z m1018 -20 c-11 -11
-23 -14 -35 -9 -17 7 -17 8 2 15 11 5 27 9 35 9 12 1 11 -2 -2 -15z m-986 -28
c10 -11 15 -29 12 -38 -4 -12 2 -21 18 -27 21 -9 48 -39 129 -146 29 -37 29
-39 10 -46 -33 -13 -13 -57 23 -50 18 4 131 -54 158 -81 10 -10 36 -26 58 -34
23 -9 45 -25 51 -35 5 -11 14 -19 20 -19 6 0 39 -25 74 -56 43 -38 62 -62 58
-73 -4 -12 -2 -13 4 -3 13 17 40 6 46 -19 3 -10 2 -19 -2 -19 -5 0 -20 -11
-35 -24 -23 -19 -40 -23 -95 -24 -63 -1 -69 0 -81 23 -7 14 -21 25 -30 25 -9
0 -19 3 -23 6 -10 10 5 34 22 34 14 0 14 2 1 10 -19 12 -63 13 -56 1 3 -4 -6
-6 -21 -3 -21 4 -23 6 -9 14 33 18 17 31 -31 24 -53 -6 -79 4 -70 28 7 19 -20
36 -58 36 -21 0 -26 4 -23 23 2 18 -2 23 -27 25 -39 5 -57 20 -49 44 4 15 -1
22 -26 31 -25 9 -31 17 -27 34 3 18 0 23 -15 23 -14 0 -18 -5 -14 -15 3 -9 0
-15 -9 -15 -8 0 -15 4 -15 10 0 5 -11 12 -25 16 -37 9 -51 31 -26 39 12 3 21
10 21 13 0 15 -31 52 -44 52 -18 0 -35 21 -29 36 3 8 16 14 29 14 13 0 24 5
24 10 0 6 -11 10 -24 10 -28 0 -41 14 -29 33 4 6 8 17 9 22 0 6 2 16 2 23 1 8
21 12 58 12 50 0 55 2 44 15 -10 13 -26 15 -72 10 -32 -3 -58 -4 -58 -1 0 12
37 42 65 52 37 14 65 8 87 -20z m953 -26 c4 -6 -7 -10 -25 -10 -18 0 -29 4
-25 10 3 6 15 10 25 10 10 0 22 -4 25 -10z m312 -36 c-3 -3 -12 -4 -19 -1 -8
3 -5 6 6 6 11 1 17 -2 13 -5z m-762 -24 c3 -5 -1 -10 -9 -10 -9 0 -16 5 -16
10 0 6 4 10 9 10 6 0 13 -4 16 -10z m115 -109 c0 -15 -38 -20 -44 -5 -4 10 2
14 19 14 14 0 25 -4 25 -9z m334 -67 c18 -7 12 -24 -10 -24 -8 0 -14 7 -14 15
0 17 2 18 24 9z m-154 -174 c8 -5 12 -12 8 -15 -10 -10 -49 5 -43 16 8 11 16
11 35 -1z m58 -101 c-19 -13 -28 -11 -28 5 0 9 7 12 21 9 16 -4 17 -8 7 -14z
m-578 -129 c0 -5 -10 -10 -22 -9 -22 0 -22 1 -3 9 11 5 21 9 23 9 1 1 2 -3 2
-9z m127 -6 c-3 -3 -12 -4 -19 -1 -8 3 -5 6 6 6 11 1 17 -2 13 -5z m111 -60
c13 -2 20 -9 17 -14 -9 -14 16 -12 44 4 24 13 65 10 56 -4 -3 -5 5 -6 16 -3
15 4 20 2 17 -7 -2 -7 -24 -15 -49 -17 -54 -5 -72 -10 -65 -21 3 -5 36 -7 74
-5 63 4 70 3 75 -16 5 -19 1 -21 -36 -21 -49 0 -82 -15 -55 -25 8 -3 34 -4 56
-2 32 4 40 2 35 -9 -3 -8 0 -14 7 -14 6 0 8 -4 5 -10 -3 -5 -40 -10 -82 -10
l-75 0 15 24 c9 13 13 26 10 30 -11 10 -65 7 -58 -4 4 -6 -10 -8 -38 -4 -28 4
-47 2 -51 -5 -4 -6 -15 -11 -24 -11 -13 1 -10 6 11 21 15 11 27 27 27 36 0 9
6 12 19 8 22 -7 49 20 28 28 -19 7 -68 -4 -61 -14 3 -5 -4 -9 -15 -9 -25 0
-38 20 -20 31 11 6 10 9 -5 15 -11 4 -21 2 -26 -6 -5 -7 -16 -9 -29 -5 -18 5
-20 9 -10 21 6 8 20 14 30 14 10 0 21 5 24 10 6 10 72 7 133 -6z m-538 -4 c0
-5 -4 -10 -9 -10 -6 0 -13 5 -16 10 -3 6 1 10 9 10 9 0 16 -4 16 -10z m780
-30 c0 -16 -27 -23 -55 -16 -39 10 -29 26 15 26 22 0 40 -5 40 -10z m-15 -80
c3 -5 -1 -10 -10 -10 -9 0 -13 5 -10 10 3 6 8 10 10 10 2 0 7 -4 10 -10z
m-348 -6 c-3 -3 -12 -4 -19 -1 -8 3 -5 6 6 6 11 1 17 -2 13 -5z m375 -36 c-6
-6 -15 -8 -19 -4 -4 4 -1 11 7 16 8 5 17 7 19 4 3 -2 -1 -10 -7 -16z m-227
-58 c3 -6 -1 -7 -9 -4 -18 7 -21 14 -7 14 6 0 13 -4 16 -10z"/>
<path d="M4820 5706 c0 -2 7 -7 16 -10 8 -3 12 -2 9 4 -6 10 -25 14 -25 6z"/>
<path d="M4916 5641 c-9 -13 45 -34 58 -21 5 5 19 11 31 11 14 1 11 4 -10 9
-43 11 -73 11 -79 1z"/>
<path d="M5120 5438 c0 -4 7 -8 15 -8 8 0 15 4 15 8 0 5 -7 9 -15 9 -8 0 -15
-4 -15 -9z"/>
<path d="M5334 5345 c22 -16 66 -20 66 -6 0 5 -14 11 -31 15 -47 9 -56 7 -35
-9z"/>
<path d="M5360 5145 c-14 -16 -3 -20 19 -6 8 5 9 11 3 15 -5 3 -15 -1 -22 -9z"/>
<path d="M6860 7027 c0 -19 10 -27 26 -20 11 4 12 9 3 19 -15 18 -29 18 -29 1z"/>
<path d="M7655 7010 c3 -5 8 -10 11 -10 2 0 4 5 4 10 0 6 -5 10 -11 10 -5 0
-7 -4 -4 -10z"/>
<path d="M6700 7000 c0 -5 4 -10 9 -10 6 0 13 5 16 10 3 6 -1 10 -9 10 -9 0
-16 -4 -16 -10z"/>
<path d="M8435 6949 c-4 -6 -5 -12 -2 -15 2 -3 7 2 10 11 7 17 1 20 -8 4z"/>
<path d="M6747 6938 c-7 -4 -28 -8 -47 -8 l-35 -1 35 -16 c19 -8 29 -17 23
-20 -7 -3 -13 -13 -13 -23 0 -14 -10 -21 -34 -26 l-35 -6 27 -23 c25 -22 26
-23 5 -29 -11 -4 -25 -6 -29 -5 -15 3 -74 -23 -74 -32 0 -5 15 -9 33 -9 17 0
40 -7 51 -15 17 -13 17 -15 -15 -35 -22 -13 -46 -20 -66 -17 -18 1 -33 1 -33
-1 0 -14 36 -35 60 -34 27 1 28 -1 20 -29 -5 -16 -5 -31 -1 -34 5 -2 6 -16 3
-30 -3 -20 -1 -24 12 -19 9 3 16 1 16 -5 0 -6 -6 -11 -14 -11 -7 0 -19 -7 -26
-15 -10 -12 -7 -18 19 -32 37 -22 41 -42 6 -35 -15 2 -25 0 -25 -7 0 -8 20
-11 60 -10 56 2 91 -8 63 -18 -21 -8 -15 -23 15 -34 24 -9 25 -12 10 -20 -27
-15 -22 -27 14 -37 41 -10 49 -39 15 -47 l-25 -7 35 -31 c35 -32 38 -67 7 -67
-8 0 -14 -6 -14 -13 0 -8 14 -11 45 -9 25 2 52 -1 59 -7 10 -9 15 -8 20 5 4
11 16 15 37 12 17 -2 31 0 30 5 -1 4 -1 12 -1 17 0 6 -8 10 -17 11 -13 0 -11
3 6 10 14 5 31 7 38 5 7 -3 17 4 23 14 14 26 54 26 80 0 11 -11 28 -20 38 -20
10 0 33 -13 52 -30 43 -36 74 -38 96 -5 13 21 15 40 9 117 -4 54 -13 103 -22
116 -8 13 -12 30 -9 38 3 8 1 14 -4 14 -7 0 -23 32 -25 51 0 4 -13 20 -30 37
-58 59 -66 70 -63 86 2 10 -13 23 -42 38 -29 15 -45 29 -44 40 1 14 -10 19
-57 24 -62 7 -81 17 -52 28 9 4 20 1 24 -6 6 -9 16 -8 46 6 l38 18 -50 14
c-27 7 -51 13 -52 14 -2 0 -3 -6 -3 -14 0 -22 -35 -29 -155 -31 -128 -2 -152
1 -152 20 0 19 89 33 95 16 3 -9 10 -7 23 5 16 14 24 15 44 6 15 -7 25 -8 25
-2 0 6 12 10 26 10 17 0 28 -6 31 -20 3 -11 9 -17 14 -14 5 3 7 9 4 14 -3 4 2
10 10 14 30 11 16 29 -19 23 -23 -4 -39 -1 -46 8 -17 21 -3 35 35 35 19 0 36
4 39 9 6 10 -37 21 -109 27 -58 5 -80 20 -43 29 13 3 28 5 34 3 9 -3 14 4 14
21 0 11 -66 10 -83 -1z m3 -98 c-8 -5 -19 -10 -25 -10 -5 0 -3 5 5 10 8 5 20
10 25 10 6 0 3 -5 -5 -10z m148 -243 c-13 -20 -26 -36 -29 -37 -14 0 -19 34
-7 41 7 4 22 14 33 22 28 22 29 15 3 -26z m-98 -97 c0 -5 -2 -10 -4 -10 -3 0
-8 5 -11 10 -3 6 -1 10 4 10 6 0 11 -4 11 -10z m437 -107 c4 -16 7 -62 7 -103
l1 -75 -47 -3 c-57 -4 -107 17 -154 65 -18 18 -38 33 -44 33 -19 0 -10 -15 20
-32 17 -9 30 -22 30 -29 0 -17 -77 -3 -117 22 -27 17 -31 24 -22 35 6 8 24 14
38 14 15 0 36 7 47 15 10 8 36 15 57 15 40 0 75 14 92 37 8 11 51 29 77 32 4
1 11 -11 15 -26z m-322 -33 c10 -11 13 -20 7 -20 -6 0 -16 8 -21 18 -6 9 -11
11 -11 5 0 -7 -9 -13 -19 -13 -11 0 -23 -4 -26 -10 -3 -5 -13 -10 -21 -10 -8
0 -14 5 -14 10 0 6 6 10 14 10 7 0 19 7 26 15 17 21 44 19 65 -5z m80 -130 c3
-5 2 -10 -4 -10 -5 0 -13 5 -16 10 -3 6 -2 10 4 10 5 0 13 -4 16 -10z"/>
<path d="M5315 6924 c-51 -11 -94 -28 -89 -36 9 -14 117 -5 147 13 28 16 28
16 5 23 -24 6 -31 6 -63 0z"/>
<path d="M7084 6889 c-19 -21 -19 -21 9 -8 15 7 27 16 27 21 0 14 -16 9 -36
-13z"/>
<path d="M6638 6863 c7 -3 16 -2 19 1 4 3 -2 6 -13 5 -11 0 -14 -3 -6 -6z"/>
<path d="M6930 6841 c0 -18 98 -29 134 -15 35 13 12 22 -59 23 -41 0 -75 -3
-75 -8z"/>
<path d="M7271 6818 c-29 -10 -20 -24 21 -32 24 -5 29 -9 20 -18 -7 -7 -12
-16 -12 -20 0 -12 38 -10 45 2 3 6 1 10 -5 10 -8 0 -9 10 -5 29 5 24 3 29 -18
33 -13 3 -34 1 -46 -4z"/>
<path d="M5270 6809 c0 -5 5 -7 10 -4 6 3 10 8 10 11 0 2 -4 4 -10 4 -5 0 -10
-5 -10 -11z"/>
<path d="M7760 6780 c0 -5 5 -10 10 -10 6 0 10 5 10 10 0 6 -4 10 -10 10 -5 0
-10 -4 -10 -10z"/>
<path d="M4590 6700 c0 -5 6 -10 14 -10 8 0 18 5 21 10 3 6 -3 10 -14 10 -12
0 -21 -4 -21 -10z"/>
<path d="M4960 6590 c0 -5 5 -10 11 -10 5 0 7 5 4 10 -3 6 -8 10 -11 10 -2 0
-4 -4 -4 -10z"/>
<path d="M6547 6594 c-3 -3 -1 -19 5 -36 l11 -30 13 32 c8 18 14 34 14 36 0 6
-36 5 -43 -2z"/>
<path d="M4893 6492 c-10 -7 -10 -12 0 -25 9 -13 20 -16 45 -11 36 7 41 19 13
34 -23 12 -41 13 -58 2z"/>
<path d="M5048 6463 c6 -2 18 -2 25 0 6 3 1 5 -13 5 -14 0 -19 -2 -12 -5z"/>
<path d="M5178 6463 c7 -3 16 -2 19 1 4 3 -2 6 -13 5 -11 0 -14 -3 -6 -6z"/>
<path d="M5246 6411 c-18 -7 -17 -9 10 -18 38 -13 59 -7 43 13 -13 15 -24 16
-53 5z"/>
<path d="M6685 6370 c-3 -5 1 -10 9 -10 9 0 16 5 16 10 0 6 -4 10 -9 10 -6 0
-13 -4 -16 -10z"/>
<path d="M390 6281 c0 -28 4 -31 53 -46 28 -9 103 -27 165 -40 62 -14 122 -31
135 -39 28 -18 108 -29 126 -17 11 7 4 14 -27 30 -23 12 -46 21 -53 21 -6 0
-25 6 -42 14 -36 16 -123 43 -242 75 -44 12 -88 24 -97 27 -14 4 -18 -1 -18
-25z"/>
<path d="M6655 6260 c-3 -5 -1 -10 4 -10 6 0 11 5 11 10 0 6 -2 10 -4 10 -3 0
-8 -4 -11 -10z"/>
<path d="M7829 6253 c-13 -16 -12 -17 4 -4 9 7 17 15 17 17 0 8 -8 3 -21 -13z"/>
<path d="M3795 6190 c5 -44 6 -43 -62 -40 -45 2 -65 -17 -56 -51 3 -11 1 -19
-5 -19 -16 0 -23 -30 -12 -51 8 -13 7 -25 -1 -40 -8 -15 -8 -24 0 -32 17 -17
13 -41 -8 -54 -11 -7 -20 -20 -21 -30 -3 -70 -4 -73 -32 -73 -36 0 -44 -17
-21 -43 31 -36 46 -74 40 -103 -5 -30 12 -79 40 -109 10 -11 24 -32 30 -47 7
-16 19 -28 28 -28 21 0 67 -42 61 -56 -12 -32 73 -110 90 -82 3 5 17 14 31 19
17 6 23 14 19 26 -4 9 1 24 9 33 9 10 15 24 14 32 -2 7 2 23 9 36 12 20 10 23
-13 32 -26 10 -32 34 -15 60 9 13 12 13 24 -2 14 -19 36 -24 36 -9 0 5 -10 15
-22 23 -18 12 -20 18 -11 29 9 11 7 20 -7 39 -31 39 -25 50 25 50 25 0 45 4
45 10 0 5 -14 7 -32 5 -37 -5 -58 9 -58 36 0 13 7 19 23 19 45 0 49 16 7 33
-38 15 -40 17 -40 59 1 177 -12 308 -31 308 -5 0 -6 7 -3 15 10 24 -15 45 -52
45 -34 0 -34 0 -29 -40z"/>
<path d="M4055 6180 c27 -12 35 -12 35 0 0 6 -12 10 -27 9 -25 0 -26 -1 -8 -9z"/>
<path d="M366 6127 c-52 -291 -69 -817 -36 -1177 86 -943 426 -1832 990 -2590
193 -259 425 -514 655 -722 l110 -100 7 74 c19 193 62 280 210 424 94 91 108
101 158 112 142 31 221 26 315 -21 29 -15 40 -16 43 -7 5 15 32 41 57 56 17 9
11 15 -49 44 -62 31 -78 34 -182 38 -99 4 -114 2 -114 -11 0 -20 30 -37 64
-37 14 0 28 -5 32 -11 5 -9 -6 -10 -37 -5 -32 5 -54 2 -78 -10 -26 -13 -35
-14 -41 -4 -6 9 -13 9 -28 1 -29 -16 -32 -14 -32 14 0 14 7 28 15 30 8 3 22 7
31 10 9 3 14 8 11 11 -10 11 -99 -27 -214 -91 -131 -73 -176 -79 -103 -15 25
22 61 44 80 51 19 6 61 25 93 41 55 27 58 30 43 47 -27 30 -20 69 17 91 17 11
37 20 44 20 7 0 24 -20 39 -45 l26 -45 83 0 c45 0 97 -3 115 -6 30 -7 32 -6
25 16 -4 13 -17 32 -29 42 -18 15 -19 19 -6 28 17 11 70 13 94 4 9 -3 16 -16
16 -29 0 -58 11 -82 47 -94 25 -10 38 -10 46 -2 6 6 32 11 58 11 42 0 48 3 51
23 2 18 8 21 33 19 61 -6 108 -69 85 -113 -25 -46 130 -136 363 -209 21 -7 46
-21 57 -32 15 -16 26 -19 52 -14 18 3 51 9 73 12 22 4 45 13 52 21 8 11 16 12
29 5 20 -11 74 6 74 25 0 7 7 13 15 13 9 0 12 -6 9 -15 -8 -19 22 -20 33 -2
15 24 69 39 117 32 51 -8 53 -11 30 -43 -14 -20 -14 -22 5 -22 36 0 51 12 51
39 0 21 7 29 31 38 21 8 30 17 27 29 -3 18 -120 83 -150 83 -11 1 -18 9 -18
21 0 22 -16 27 -23 8 -3 -10 -9 -10 -24 -2 -10 6 -38 15 -61 19 -23 4 -44 11
-48 16 -3 5 -16 9 -29 9 -13 0 -27 5 -31 11 -3 6 -14 9 -25 6 -10 -3 -25 3
-34 13 -9 10 -25 15 -40 13 -16 -4 -27 1 -35 14 -9 14 -21 18 -42 15 -24 -4
-30 0 -35 17 -5 19 -10 21 -35 16 -25 -6 -29 -4 -26 12 2 10 12 19 24 21 18 3
21 11 22 57 1 30 -3 55 -7 55 -5 0 -18 17 -29 39 -20 38 -20 38 -1 55 11 9 24
16 29 16 15 0 12 17 -5 24 -24 9 -17 26 9 26 31 0 42 16 25 36 -10 12 -8 19
11 39 13 14 18 25 12 25 -7 0 -12 11 -12 25 0 16 6 25 15 25 19 0 19 14 1 29
-7 6 -14 30 -14 52 -1 33 3 42 18 46 25 7 15 23 -14 23 -22 0 -46 17 -46 32 0
4 6 8 13 8 8 0 22 9 32 20 10 11 15 20 11 20 -4 0 -2 9 4 19 8 16 6 22 -7 31
-11 7 -14 13 -7 16 6 3 20 11 30 18 15 12 16 16 5 30 -9 10 -19 13 -30 7 -9
-4 -31 -11 -49 -15 -44 -8 -38 15 7 26 17 5 34 15 38 23 3 8 14 15 24 15 24 0
25 20 2 21 -10 1 -25 2 -33 3 -8 2 -24 3 -34 4 -18 2 -17 5 9 32 17 18 26 34
20 38 -6 4 -16 17 -23 30 -11 20 -10 22 8 22 11 0 20 5 20 10 0 6 -11 10 -24
10 -19 0 -23 4 -19 21 4 15 11 19 28 15 18 -5 24 -1 27 18 5 27 -29 66 -58 66
-14 0 -15 3 -6 12 7 7 12 20 12 30 0 12 8 18 23 18 12 0 28 4 35 9 10 6 6 11
-17 19 -31 11 -39 26 -21 37 24 15 5 24 -57 27 -46 2 -68 7 -71 17 -4 11 2 13
27 8 20 -4 30 -3 26 3 -3 6 -2 10 4 10 5 0 13 -5 16 -10 5 -8 11 -7 21 1 7 6
20 9 27 6 13 -5 107 16 127 28 7 4 6 13 -1 27 -9 17 -18 20 -53 15 -27 -4 -47
-1 -60 9 -11 8 -28 14 -37 14 -10 0 -21 9 -24 21 -6 16 -13 20 -36 17 -17 -3
-30 1 -33 9 -3 7 -19 13 -35 13 -16 0 -33 5 -36 10 -3 6 -14 10 -23 10 -15 0
-15 -2 -2 -10 13 -8 12 -10 -2 -10 -26 0 -22 15 13 44 17 15 43 26 59 26 16 0
32 5 35 10 3 6 -3 10 -14 10 -11 0 -23 4 -26 10 -4 6 -13 5 -25 -2 -15 -10
-22 -10 -32 0 -9 9 -8 12 5 12 9 0 17 4 17 10 0 10 87 7 97 -4 4 -3 29 -6 57
-6 l51 1 -40 24 c-43 27 -75 31 -106 15 -12 -7 -19 -7 -19 -1 0 16 40 33 61
28 10 -3 19 -1 19 4 0 5 -9 9 -21 9 -11 0 -17 5 -14 10 3 6 -2 10 -11 10 -10
0 -15 -3 -11 -6 10 -10 -22 -36 -41 -32 -24 5 -22 32 3 36 29 6 44 21 42 43
-1 15 -9 19 -42 20 -38 1 -39 2 -10 9 l30 8 -35 1 -34 1 22 16 c13 9 21 22 18
30 -4 10 4 14 29 14 19 0 36 5 36 10 1 6 2 15 3 22 0 7 12 15 26 18 14 3 26
14 28 23 4 21 -25 34 -41 18 -16 -16 -47 -14 -53 3 -3 8 -23 17 -45 21 -45 8
-56 20 -38 41 10 13 10 17 0 24 -9 5 -3 11 22 19 19 7 38 18 41 26 5 13 -12
19 -83 28 -24 3 -23 25 1 32 27 9 58 34 58 48 0 6 -20 7 -51 3 -29 -4 -56 -3
-62 3 -15 11 -67 3 -67 -11 0 -6 -5 -6 -14 1 -10 8 -21 8 -40 1 -15 -5 -43
-10 -62 -10 -20 0 -34 -5 -35 -12 0 -7 -2 -26 -4 -43 -2 -16 0 -32 6 -35 5 -4
2 -13 -8 -22 -13 -11 -25 -13 -40 -7 -28 10 -29 26 -3 34 23 7 26 21 7 28 -7
3 -24 -6 -37 -20 -14 -15 -31 -23 -42 -20 -11 3 -18 0 -18 -8 0 -7 -7 -15 -15
-19 -14 -5 -21 12 -15 39 1 6 2 15 3 20 1 6 -7 9 -18 7 -17 -2 -16 1 8 23 33
30 27 49 -14 41 -34 -7 -39 12 -10 38 21 19 54 10 65 -19 3 -8 16 -15 28 -16
13 0 17 -3 11 -6 -7 -2 -13 -9 -13 -14 0 -13 24 -11 45 5 18 13 17 15 -19 30
-27 11 -36 20 -32 31 3 9 -4 25 -16 37 -20 20 -20 21 -2 35 10 7 24 11 31 9 7
-3 13 -1 13 4 0 6 -17 10 -38 10 -20 0 -53 4 -72 10 -22 6 -38 6 -44 0 -13
-13 -39 -13 -31 -1 7 12 -26 31 -54 31 -12 0 -21 7 -21 16 0 13 8 14 48 7 55
-9 143 -6 154 5 11 11 -14 62 -30 62 -8 0 -27 -9 -43 -21 -24 -17 -37 -19 -72
-14 -23 4 -45 13 -49 19 -6 8 -10 7 -16 -2 -6 -9 -39 -14 -103 -16 -52 -1
-103 -7 -112 -12 -17 -10 -16 -11 2 -28 19 -18 22 -18 47 -2 26 18 61 15 49
-4 -3 -5 -23 -14 -45 -20 -21 -6 -46 -17 -54 -26 -25 -24 -79 -29 -100 -9 -28
28 -17 58 27 68 39 9 52 37 17 37 -43 0 -38 95 6 106 21 6 25 11 19 32 -5 19
1 32 24 56 16 17 39 49 51 71 11 22 25 47 29 55 12 22 32 82 37 110 9 50 28
105 41 121 7 9 32 22 56 29 23 8 48 18 55 23 7 6 31 10 53 9 40 -2 79 23 79
51 0 8 6 27 13 43 8 18 12 51 9 86 -3 51 -6 56 -30 61 -20 4 -36 -3 -64 -29
-21 -19 -47 -34 -57 -34 -21 0 -101 49 -101 62 0 10 -68 9 -93 -1 -17 -6 -17
-8 -3 -20 29 -25 17 -31 -53 -29 -43 1 -75 -2 -84 -10 -12 -11 -22 -8 -52 13
-21 14 -46 25 -56 25 -10 0 -26 11 -35 25 -9 13 -30 29 -48 34 -65 20 -163 60
-198 81 -32 18 -53 21 -150 22 -107 0 -116 2 -178 33 -104 52 -155 64 -288 69
-103 4 -132 2 -184 -15 -43 -13 -105 -22 -198 -26 -156 -7 -223 0 -250 27 -11
11 -32 26 -48 34 -16 8 -42 30 -56 47 l-27 32 21 22 20 22 -21 26 c-11 15 -27
27 -35 27 -8 0 -14 5 -14 10 0 6 -7 10 -16 10 -8 0 -12 5 -9 10 4 6 9 8 13 6
4 -2 16 2 27 10 18 13 18 14 -6 16 -64 3 -74 3 -81 -7 -5 -6 -11 -6 -20 3 -6
6 -19 12 -28 12 -8 0 -22 9 -30 21 -8 11 -22 25 -31 30 -14 7 -18 2 -23 -24z
m2332 -660 c2 -12 -1 -15 -12 -11 -19 7 -22 38 -3 32 6 -3 13 -12 15 -21z
m-163 -947 c3 -5 2 -10 -4 -10 -5 0 -13 5 -16 10 -3 6 -2 10 4 10 5 0 13 -4
16 -10z m-5 -90 c0 -5 -7 -10 -15 -10 -8 0 -15 5 -15 10 0 6 7 10 15 10 8 0
15 -4 15 -10z m686 -29 c-10 -11 -25 -17 -37 -14 -37 10 -17 29 35 32 18 1 18
0 2 -18z m-106 -11 c0 -5 -9 -10 -20 -10 -11 0 -20 5 -20 10 0 6 9 10 20 10
11 0 20 -4 20 -10z m-295 -40 c-3 -5 -14 -10 -23 -9 -14 0 -13 2 3 9 27 11 27
11 20 0z m-412 -27 c-7 -2 -19 -2 -25 0 -7 3 -2 5 12 5 14 0 19 -2 13 -5z m87
-3 c0 -5 7 -10 16 -10 8 0 12 5 9 10 -9 15 11 12 24 -4 10 -11 8 -18 -9 -34
-20 -18 -52 -22 -114 -13 -17 2 27 41 46 41 11 0 16 5 13 10 -3 6 -1 10 4 10
6 0 11 -4 11 -10z m521 -25 c22 7 84 -13 74 -24 -10 -10 -139 -8 -152 2 -9 7
-10 14 -2 29 10 18 12 18 35 3 15 -9 33 -13 45 -10z m184 -5 c3 -5 1 -10 -4
-10 -6 0 -11 5 -11 10 0 6 2 10 4 10 3 0 8 -4 11 -10z m-920 -80 c-3 -5 -12
-10 -20 -10 -8 0 -17 5 -20 10 -4 6 5 10 20 10 15 0 24 -4 20 -10z m1112 -15
c0 -8 -4 -15 -7 -15 -12 0 -30 26 -24 33 10 10 31 -3 31 -18z m-877 -15 c0 -5
-6 -10 -14 -10 -8 0 -18 5 -21 10 -3 6 3 10 14 10 12 0 21 -4 21 -10z m-45
-90 c-3 -5 -10 -10 -16 -10 -5 0 -9 5 -9 10 0 6 7 10 16 10 8 0 12 -4 9 -10z
m-222 -87 c-7 -2 -19 -2 -25 0 -7 3 -2 5 12 5 14 0 19 -2 13 -5z m670 -154
c-8 -8 -16 -8 -30 0 -16 9 -14 10 12 11 21 0 26 -3 18 -11z m477 -85 c0 -2 -9
-4 -20 -4 -11 0 -20 4 -20 9 0 5 9 7 20 4 11 -3 20 -7 20 -9z m-27 -117 c4
-10 -2 -13 -19 -9 -13 2 -24 8 -24 13 0 14 37 10 43 -4z m67 -69 c0 -5 -9 -7
-19 -3 -11 3 -25 -1 -34 -10 -9 -8 -24 -15 -34 -15 -14 0 -15 2 -5 9 11 6 10
10 -5 16 -17 7 -17 7 0 14 24 9 97 1 97 -11z m14 -37 c18 -7 18 -8 2 -14 -13
-5 -16 -14 -12 -32 6 -25 0 -31 -19 -17 -14 10 -15 72 -1 71 6 0 20 -4 30 -8z
m-99 -51 c-3 -5 -14 -10 -23 -10 -15 0 -15 2 -2 10 20 13 33 13 25 0z m135
-45 c0 -10 -10 -15 -30 -15 -29 0 -38 9 -23 23 13 13 53 7 53 -8z m2 -87 c-9
-9 -15 -9 -24 0 -9 9 -7 12 12 12 19 0 21 -3 12 -12z m-2 -110 c0 -13 -32 -6
-37 9 -3 7 3 9 16 6 12 -3 21 -10 21 -15z m-950 -458 c0 -14 -48 -43 -60 -35
-16 10 -12 21 13 33 28 14 47 15 47 2z m405 -300 c-3 -5 -10 -10 -16 -10 -5 0
-9 5 -9 10 0 6 7 10 16 10 8 0 12 -4 9 -10z m409 -111 c-3 -5 -10 -7 -15 -3
-5 3 -7 10 -3 15 3 5 10 7 15 3 5 -3 7 -10 3 -15z m86 2 c0 -12 -20 -25 -27
-18 -7 7 6 27 18 27 5 0 9 -4 9 -9z m-1044 -216 c18 -14 18 -14 -9 -15 -16 0
-26 -4 -23 -9 3 -5 -7 -11 -22 -14 -15 -3 -38 -8 -50 -12 -24 -8 -24 -8 -8 23
8 16 21 32 28 35 26 10 65 7 84 -8z"/>
<path d="M7043 6144 c-7 -19 0 -26 21 -18 20 8 21 20 1 28 -9 3 -18 -1 -22
-10z"/>
<path d="M7633 6095 c-28 -25 -56 -45 -61 -45 -5 0 -16 -7 -23 -17 -21 -25 3
-14 64 31 44 32 87 76 74 76 -1 0 -25 -20 -54 -45z"/>
<path d="M932 6090 c10 -6 55 -17 100 -25 46 -7 99 -16 118 -20 32 -6 34 -5
16 9 -22 18 -98 35 -186 42 -50 4 -61 3 -48 -6z"/>
<path d="M6920 6085 c0 -16 22 -25 62 -25 39 0 29 11 -23 26 -31 10 -39 9 -39
-1z"/>
<path d="M6365 6009 c-4 -6 -5 -13 -2 -16 7 -7 27 6 27 18 0 12 -17 12 -25 -2z"/>
<path d="M4066 5985 c4 -8 18 -15 32 -15 25 0 25 1 6 15 -25 19 -45 19 -38 0z"/>
<path d="M4018 5782 c20 -13 115 -15 107 -3 -3 6 -32 11 -63 11 -33 0 -52 -4
-44 -8z"/>
<path d="M3236 5717 c-15 -19 -26 -49 -28 -71 -1 -24 -9 -43 -20 -49 -15 -10
-16 -13 -2 -28 14 -15 14 -21 0 -54 -12 -28 -13 -41 -5 -51 17 -21 1 -74 -22
-74 -10 0 -19 -7 -19 -15 0 -9 9 -15 23 -15 13 0 28 -5 34 -11 7 -7 23 -9 37
-5 19 5 26 13 26 32 0 13 9 42 20 64 11 21 20 49 20 62 -1 67 2 112 10 132 5
14 3 30 -6 46 -7 14 -13 35 -14 48 0 32 -25 27 -54 -11z"/>
<path d="M5935 5700 c-3 -5 -1 -10 4 -10 6 0 11 5 11 10 0 6 -2 10 -4 10 -3 0
-8 -4 -11 -10z"/>
<path d="M6035 5670 c-3 -5 3 -10 14 -10 12 0 21 5 21 10 0 6 -6 10 -14 10 -8
0 -18 -4 -21 -10z"/>
<path d="M4088 5643 c-25 -6 -22 -20 4 -26 31 -8 68 2 68 19 0 14 -34 17 -72
7z"/>
<path d="M5940 5640 c0 -5 4 -10 9 -10 6 0 13 5 16 10 3 6 -1 10 -9 10 -9 0
-16 -4 -16 -10z"/>
<path d="M7335 5600 c-3 -5 -2 -10 4 -10 5 0 13 5 16 10 3 6 2 10 -4 10 -5 0
-13 -4 -16 -10z"/>
<path d="M2436 5591 c-4 -5 3 -15 15 -21 18 -10 20 -9 17 6 -4 20 -23 30 -32
15z"/>
<path d="M6057 5594 c-11 -12 3 -24 29 -24 16 0 24 5 22 13 -5 13 -40 22 -51
11z"/>
<path d="M4030 5565 c0 -10 10 -15 30 -15 32 0 40 14 14 24 -27 10 -44 7 -44
-9z"/>
<path d="M7060 5373 l-45 -46 49 34 c27 19 51 40 54 47 8 24 -15 11 -58 -35z"/>
<path d="M2756 5221 c-4 -5 -2 -12 3 -15 5 -4 12 -2 15 3 4 5 2 12 -3 15 -5 4
-12 2 -15 -3z"/>
<path d="M6517 5009 c-32 -32 -35 -36 -12 -21 33 22 72 62 61 62 -4 0 -26 -18
-49 -41z"/>
<path d="M6424 4939 c-22 -17 -70 -47 -109 -66 -118 -59 -140 -72 -129 -73 33
-1 234 112 270 151 25 28 12 23 -32 -12z"/>
<path d="M3103 4943 c-8 -3 -11 -14 -7 -27 3 -14 -3 -38 -15 -59 -11 -21 -20
-38 -18 -38 1 -1 19 -3 40 -4 39 -2 48 8 21 23 -18 10 -11 32 11 32 25 0 25
28 -1 34 -19 5 -24 11 -19 26 4 11 5 20 3 19 -2 0 -9 -3 -15 -6z"/>
<path d="M3305 4930 c-3 -6 1 -7 9 -4 18 7 21 14 7 14 -6 0 -13 -4 -16 -10z"/>
<path d="M3932 4918 c7 -19 38 -22 38 -4 0 10 -9 16 -21 16 -12 0 -19 -5 -17
-12z"/>
<path d="M3176 4896 c3 -7 -2 -16 -10 -19 -18 -7 -11 -37 9 -37 7 0 24 -9 39
-21 25 -20 66 -19 66 2 0 5 6 9 14 9 12 0 26 20 26 36 0 3 -18 4 -40 2 -48 -2
-62 9 -36 28 18 13 16 14 -27 14 -35 0 -45 -3 -41 -14z"/>
<path d="M4005 4890 c3 -5 15 -10 26 -10 10 0 19 5 19 10 0 6 -12 10 -26 10
-14 0 -23 -4 -19 -10z"/>
<path d="M2670 4840 c-8 -5 -12 -12 -8 -15 10 -10 49 5 43 16 -8 11 -16 11
-35 -1z"/>
<path d="M3932 4833 c-19 -4 -20 -6 -8 -19 15 -15 48 -19 59 -7 7 7 -11 34
-22 32 -3 -1 -16 -4 -29 -6z"/>
<path d="M5824 4821 c8 -12 122 -35 142 -27 16 6 16 8 -2 21 -21 16 -149 21
-140 6z"/>
<path d="M2722 4803 c4 -21 33 -25 33 -3 0 8 -8 16 -18 18 -14 3 -18 -1 -15
-15z"/>
<path d="M3114 4776 c-43 -15 -67 -37 -55 -49 5 -5 15 -6 23 -1 13 8 66 6 81
-3 5 -3 -1 -12 -13 -20 -19 -13 -23 -13 -39 1 -22 20 -31 20 -31 1 0 -8 -4
-15 -10 -15 -5 0 -10 -4 -10 -10 0 -5 9 -10 19 -10 30 0 51 -11 51 -26 0 -9
-11 -14 -30 -14 -19 0 -33 -7 -40 -20 -6 -11 -17 -20 -25 -20 -22 0 -18 -18 8
-34 34 -23 104 -31 133 -15 20 10 32 10 55 2 23 -9 37 -9 60 1 16 7 26 15 22
19 -3 4 -1 7 6 7 7 0 9 5 6 10 -4 6 -23 8 -43 5 l-37 -5 32 16 c41 22 51 44
18 44 -30 0 -75 17 -75 28 0 5 20 17 45 28 43 17 61 44 30 44 -8 0 -16 -1 -17
-2 -11 -6 -49 26 -44 38 4 11 -5 14 -42 13 -26 -1 -61 -6 -78 -13z"/>
<path d="M3908 4723 c7 -3 16 -2 19 1 4 3 -2 6 -13 5 -11 0 -14 -3 -6 -6z"/>
<path d="M3935 4630 c-3 -5 3 -10 15 -10 12 0 18 5 15 10 -3 6 -10 10 -15 10
-5 0 -12 -4 -15 -10z"/>
<path d="M3418 4483 c7 -3 16 -2 19 1 4 3 -2 6 -13 5 -11 0 -14 -3 -6 -6z"/>
<path d="M3688 4423 c7 -3 16 -2 19 1 4 3 -2 6 -13 5 -11 0 -14 -3 -6 -6z"/>
<path d="M4885 4295 c-35 -21 -37 -24 -17 -25 25 0 89 27 98 41 11 18 -43 8
-81 -16z"/>
<path d="M3530 4260 c0 -5 16 -10 36 -10 21 0 33 4 29 10 -3 6 -19 10 -36 10
-16 0 -29 -4 -29 -10z"/>
<path d="M3633 4243 c9 -2 23 -2 30 0 6 3 -1 5 -18 5 -16 0 -22 -2 -12 -5z"/>
<path d="M3530 4185 c0 -16 1 -17 43 -19 34 -2 34 5 0 22 -35 16 -43 15 -43
-3z"/>
<path d="M3730 4170 c0 -5 7 -10 15 -10 8 0 15 5 15 10 0 6 -7 10 -15 10 -8 0
-15 -4 -15 -10z"/>
<path d="M3810 4163 c0 -7 32 -32 43 -33 17 0 5 18 -18 28 -14 6 -25 9 -25 5z"/>
<path d="M3418 4133 c10 -4 9 -8 -5 -19 -17 -13 -17 -13 3 -14 12 0 24 6 27
14 7 17 -1 26 -22 25 -11 0 -12 -2 -3 -6z"/>
<path d="M3468 4133 c7 -3 16 -2 19 1 4 3 -2 6 -13 5 -11 0 -14 -3 -6 -6z"/>
<path d="M3635 4060 c3 -5 8 -10 11 -10 2 0 4 5 4 10 0 6 -5 10 -11 10 -5 0
-7 -4 -4 -10z"/>
<path d="M3458 4043 c7 -3 16 -2 19 1 4 3 -2 6 -13 5 -11 0 -14 -3 -6 -6z"/>
<path d="M3580 4010 c0 -5 6 -10 14 -10 8 0 18 5 21 10 3 6 -3 10 -14 10 -12
0 -21 -4 -21 -10z"/>
<path d="M3678 4003 c6 -2 18 -2 25 0 6 3 1 5 -13 5 -14 0 -19 -2 -12 -5z"/>
<path d="M3485 3870 c-19 -7 -19 -7 4 -15 12 -4 27 -3 33 3 13 13 -11 21 -37
12z"/>
<path d="M3617 3813 c-14 -4 -16 -8 -7 -18 9 -11 17 -11 36 -3 18 8 21 14 12
20 -7 4 -15 7 -18 7 -3 -1 -13 -3 -23 -6z"/>
<path d="M3833 3813 c9 -2 23 -2 30 0 6 3 -1 5 -18 5 -16 0 -22 -2 -12 -5z"/>
<path d="M5113 3573 c-4 -10 13 -53 45 -112 28 -53 62 -127 77 -166 23 -61 26
-79 20 -139 -4 -39 -15 -86 -25 -105 -30 -59 -43 -117 -36 -155 l7 -36 32 16
c54 28 132 96 167 147 50 72 51 123 6 227 -29 68 -49 96 -101 147 -36 35 -69
63 -73 63 -16 0 -92 72 -86 81 7 12 -5 49 -17 49 -5 0 -13 -8 -16 -17z"/>
<path d="M3568 3493 c6 -2 18 -2 25 0 6 3 1 5 -13 5 -14 0 -19 -2 -12 -5z"/>
<path d="M2910 2220 c20 -13 43 -13 35 0 -3 6 -16 10 -28 10 -18 0 -19 -2 -7
-10z"/>
<path d="M2839 2096 c6 -8 22 -16 34 -19 22 -6 22 -6 -2 14 -27 22 -49 26 -32
5z"/>
<path d="M2537 2089 c-83 -20 -90 -34 -58 -119 11 -27 15 -52 11 -55 -13 -8
-49 43 -60 86 -6 22 -15 39 -19 39 -13 0 -121 -83 -153 -117 l-28 -29 52 -35
c50 -33 72 -59 49 -59 -6 0 -33 16 -60 35 -38 28 -51 32 -59 22 -26 -31 -72
-145 -72 -178 l0 -36 62 -7 c63 -6 76 -11 64 -23 -3 -4 -33 -2 -66 3 -34 6
-63 8 -65 5 -3 -2 -5 -30 -5 -62 l0 -57 78 -64 c91 -76 226 -178 235 -178 4 0
3 10 -2 23 -12 31 11 112 39 142 13 13 38 29 56 35 19 7 34 18 34 25 0 8 4 16
8 19 5 3 8 -4 8 -16 -1 -16 6 -21 29 -23 58 -5 89 -29 103 -79 18 -71 15 -119
-10 -152 -33 -43 -60 -63 -83 -63 -17 0 -14 5 16 32 46 40 59 65 59 112 0 54
-25 94 -73 115 -37 17 -44 17 -77 4 -49 -20 -78 -56 -86 -109 -5 -40 -3 -50
21 -81 16 -20 45 -44 66 -53 22 -9 39 -21 39 -26 0 -6 39 -35 88 -64 48 -30
103 -64 122 -76 62 -40 173 -101 257 -144 77 -38 86 -40 130 -32 26 5 93 17
148 26 55 9 129 27 165 40 36 13 76 26 90 30 62 16 137 50 158 72 13 12 31 23
42 23 27 0 33 16 13 35 -16 17 -47 17 -87 0 -14 -6 -17 -4 -15 10 6 28 50 54
104 60 28 4 63 15 78 27 35 24 42 19 25 -16 -10 -23 -9 -29 3 -37 24 -15 47
-10 67 16 35 44 46 83 35 120 -9 27 -8 38 4 55 9 12 20 38 25 59 10 38 21 210
22 346 l1 80 -64 3 c-36 2 -69 -2 -74 -7 -6 -6 -43 -11 -82 -11 -61 1 -80 6
-149 39 -64 32 -84 37 -104 30 -36 -14 -92 0 -101 24 -6 16 -32 27 -112 49
-57 16 -111 31 -120 34 -27 9 -29 -20 -7 -88 17 -52 20 -88 20 -203 -1 -172
-18 -263 -72 -392 -51 -119 -72 -175 -68 -179 8 -8 73 14 70 25 -3 16 190 11
195 -5 5 -16 -173 -66 -279 -78 -52 -6 -66 11 -29 36 25 17 94 182 120 287 34
136 25 246 -17 204 -21 -20 -28 -5 -35 75 -4 48 -2 62 8 62 8 0 17 -4 20 -10
9 -15 35 -12 35 3 0 19 -37 51 -44 39 -9 -15 -45 -3 -50 17 -18 60 -17 87 3
105 21 19 28 46 13 46 -4 0 -18 -8 -31 -17 -23 -16 -24 -16 -19 4 5 19 1 20
-38 18 -51 -4 -78 17 -50 38 16 11 16 15 1 49 -19 47 -19 48 3 48 27 0 32 9
20 36 -13 28 -38 32 -38 5 0 -10 -7 -24 -15 -31 -20 -17 -19 -33 5 -55 20 -18
27 -45 11 -45 -4 0 -20 9 -34 20 -14 11 -29 20 -34 20 -5 0 -22 14 -38 30 -18
18 -35 28 -45 25 -10 -3 -37 4 -61 15 -58 26 -73 25 -87 -5 -19 -41 -14 -53
28 -75 22 -11 47 -35 57 -53 23 -44 22 -123 -2 -171 -30 -59 -64 -80 -134 -81
-69 0 -100 21 -132 92 -24 54 -24 83 2 138 24 50 58 79 107 90 37 8 49 36 33
78 -12 30 -39 34 -114 16z m552 -313 c1 -6 -5 -1 -13 9 -8 11 -12 24 -8 29 5
9 20 -17 21 -38z m-674 -33 c-3 -21 -11 -42 -16 -48 -9 -8 -4 37 7 73 8 28 16
9 9 -25z m491 -49 c94 -45 101 -212 13 -275 -55 -39 -87 -42 -149 -13 -62 30
-96 81 -85 127 4 14 2 28 -4 31 -15 10 31 98 65 125 33 26 111 28 160 5z
m-512 -79 c-4 -8 -8 -15 -10 -15 -2 0 -4 7 -4 15 0 8 4 15 10 15 5 0 7 -7 4
-15z m702 -232 c-10 -10 -19 5 -10 18 6 11 8 11 12 0 2 -7 1 -15 -2 -18z m-16
-51 c0 -18 -63 -106 -67 -94 -3 7 8 32 24 57 26 42 43 56 43 37z m-90 -142
c-6 -11 -15 -20 -20 -20 -14 0 -12 6 6 24 21 22 27 20 14 -4z"/>
<path d="M2759 1642 c-28 -25 -33 -36 -35 -88 -3 -54 -1 -63 25 -91 33 -36 89
-51 127 -34 39 18 64 68 64 133 0 51 -3 59 -31 82 -44 37 -107 36 -150 -2z"/>
<path d="M3080 1988 c0 -9 5 -20 11 -23 5 -4 14 -18 19 -31 10 -25 30 -33 30
-11 -1 20 -59 85 -60 65z"/>
<path d="M2579 1934 c-12 -14 -7 -22 35 -59 31 -27 45 -45 37 -49 -11 -7 -66
25 -88 52 -12 14 -13 14 -13 -3 0 -10 -5 -34 -12 -52 -11 -31 -10 -35 22 -68
59 -61 136 -54 181 18 45 73 -17 176 -107 177 -27 0 -46 -6 -55 -16z"/>
<path d="M3595 1910 c-16 -7 -11 -9 20 -9 22 0 47 4 55 9 19 13 -46 13 -75 0z"/>
<path d="M3825 1886 c-27 -6 -45 -14 -40 -16 16 -9 127 -5 159 4 25 8 28 6 23
-7 -3 -9 1 -18 10 -21 19 -8 33 1 33 19 0 8 8 19 18 24 25 15 -139 12 -203 -3z"/>
<path d="M3787 864 c-3 -4 -28 -8 -54 -9 -97 -6 -226 -26 -254 -40 -15 -8 -36
-15 -46 -15 -10 0 -43 -9 -73 -19 l-55 -19 60 -27 c113 -51 260 -107 420 -160
211 -70 212 -70 220 -45 10 31 -25 82 -73 107 -74 37 -74 37 -66 125 6 66 4
78 -8 78 -9 0 -21 7 -28 15 -13 16 -32 20 -43 9z"/>
<path d="M4205 586 c-22 -8 -51 -16 -65 -20 -43 -10 -53 -21 -46 -53 8 -34 30
-42 237 -87 192 -41 595 -98 542 -76 -12 5 -25 15 -30 23 -22 37 -92 68 -208
91 -66 13 -145 33 -175 43 -46 17 -55 24 -55 44 0 20 -7 26 -45 36 -60 15
-106 15 -155 -1z"/>
<path d="M6630 581 c-30 -10 -104 -43 -165 -73 -149 -75 -264 -112 -332 -105
-43 5 -62 1 -113 -24 -34 -16 -68 -29 -76 -29 -28 0 -92 32 -96 48 -3 9 -31
28 -64 41 -32 14 -61 28 -64 32 -12 17 -125 19 -178 2 -66 -20 -83 -9 -56 36
14 24 16 36 8 49 -16 25 -60 27 -92 3 -15 -11 -46 -21 -68 -23 -39 -3 -39 -3
-36 -42 3 -38 3 -38 -30 -33 -36 5 -153 -43 -215 -90 -23 -16 -47 -24 -79 -25
-99 -2 -12 -16 171 -28 299 -20 659 -2 1035 51 196 27 354 63 398 91 50 31
132 108 132 124 0 18 -13 17 -80 -5z"/>
<path d="M5607 574 c-8 -8 1 -24 14 -24 5 0 9 7 9 15 0 15 -12 20 -23 9z"/>
<path d="M4551 531 c-25 -16 -1 -32 37 -26 60 10 70 16 47 25 -27 11 -67 12
-84 1z"/>
</g>
</svg>
